# xmcd
#
# Track frame offsets:
#	150
#	10183
#	20804
#	29305
#	44016
#	54710
#	64412
#	74413
#	83958
#	92253
#
# Disc length: 1384 seconds
#
# Revision: 1
# Processed by: cddbd v1.5.2PL0 Copyright (c) Steve Scherf et al.
# Submitted via: audiograbber 1.83.01
#
DISCID=8705660a
DTITLE=Various Artist - Best Of Bluegrass - Long Journey Home
DYEAR=2004
DGENRE=Country
TTITLE0=Larry Sparks - Long Journey Home
TTITLE1=Reno and Smiley - Freight Train Boogie
TTITLE2=Stringbean - Good Old Mountain Dew
TTITLE3=Jimmy Martin - Will You Be Lovin' Another Man
TTITLE4=Moore and Napier - John Henry
TTITLE5=Country Gentlemen - Nobody's Business
TTITLE6=Lester Flatt - Yonder Stands Little Maggie
TTITLE7=Stanley Brothers - Pig In A Pen
TTITLE8=Jim Eanes - Bending The Strings
TTITLE9=Hylo Brown and The Lonesome Pine Fiddlers - Little Footprints In The Snow
EXTD=
EXTT0=
EXTT1=
EXTT2=
EXTT3=
EXTT4=
EXTT5=
EXTT6=
EXTT7=
EXTT8=
EXTT9=
PLAYORDER=
